<?xml version="1.0" encoding="UTF-8" standalone="no"?>
<!-- Created with Inkscape (http://www.inkscape.org/) -->

<svg
   width="170mm"
   height="170mm"
   viewBox="0 0 170 170"
   version="1.1"
   id="svg5"
   inkscape:version="1.1.2 (b8e25be833, 2022-02-05)"
   sodipodi:docname="perfil-usuaria.svg"
   xmlns:inkscape="http://www.inkscape.org/namespaces/inkscape"
   xmlns:sodipodi="http://sodipodi.sourceforge.net/DTD/sodipodi-0.dtd"
   xmlns="http://www.w3.org/2000/svg"
   xmlns:svg="http://www.w3.org/2000/svg">
  <sodipodi:namedview
     id="namedview7"
     pagecolor="#ffffff"
     bordercolor="#666666"
     borderopacity="1.0"
     inkscape:pageshadow="2"
     inkscape:pageopacity="0.0"
     inkscape:pagecheckerboard="0"
     inkscape:document-units="mm"
     showgrid="false"
     inkscape:zoom="0.26173516"
     inkscape:cx="231.14969"
     inkscape:cy="1188.224"
     inkscape:window-width="1362"
     inkscape:window-height="1041"
     inkscape:window-x="481"
     inkscape:window-y="46"
     inkscape:window-maximized="0"
     inkscape:current-layer="g26117"
     showguides="true"
     inkscape:guide-bbox="true"
     width="1600mm" />
  <defs
     id="defs2" />
  <g
     inkscape:label="Capa 1"
     inkscape:groupmode="layer"
     id="layer1">
    <g
       id="g3847"
       transform="matrix(0.90846295,0,0,0.90846295,164.22814,31.913731)">
      <g
         id="g12268"
         transform="translate(-180.77046,-35.12937)">
        <g
           id="g26117"
           transform="matrix(0.97409119,0,0,0.97409119,-0.00536581,1.1210309e-7)">
          <g
             id="g29625"
             transform="matrix(0.2989893,0,0,0.2989893,162.76716,-88.643235)">
            <g
               id="g33883"
               transform="translate(-498.97171,286.37928)">
              <polygon
                 points="361.19,262.04999 379.19,379.04999 246.19,379.04999 246.19,199.04999 "
                 fill="#2f2e41"
                 id="polygon29598" />
              <circle
                 cx="270.76004"
                 cy="260.93216"
                 r="86.348969"
                 fill="#ffb6b6"
                 id="circle29600" />
              <polygon
                 points="341.19,418.04999 261.19,510.04999 204.19,398.04999 221.19,360.04999 217.28893,320.61639 295.19,306.04999 "
                 fill="#ffb6b6"
                 id="polygon29602" />
              <path
                 d="m 457.03998,451.08997 c -0.96997,1.01001 -1.95996,2.01001 -2.94995,3 -3.14001,3.14001 -6.34003,6.19 -9.61005,9.15002 C 395.47998,507.67999 332.60998,532 266,532 204.59003,532 146.35999,511.32996 99.25,473.27997 c -0.02997,-0.02 -0.04999,-0.04 -0.08002,-0.07 -1.42999,-1.14996 -2.83997,-2.32001 -4.25,-3.51001 0.25,-0.71997 0.52002,-1.42999 0.79004,-2.13 15.14996,-39.46997 45.07001,-58.77997 63.22998,-67.22998 9,-4.19 15.10999,-5.71997 15.10999,-5.71997 l 21.32001,-38.40002 15.01001,28 11.06,20.64001 45.38,84.66998 39.15002,-97.47998 12.12994,-30.22003 3.11005,-7.73999 L 336,365.59999 350,376.49 l 28.19,6.21997 22.87,5.04999 31.06,6.86005 c 12.56,10.22998 20.20001,29.69 24.47003,53.87 0.15997,0.85999 0.31,1.72998 0.44995,2.59998 z"
                 fill="#3b0b47"
                 id="path29604" />
              <path
                 d="m 225.33945,162.80316 c 10.51816,-17.66798 29.83585,-29.79031 50.31992,-31.577 20.48407,-1.78667 41.60876,6.80817 55.02692,22.38837 7.99588,9.28423 13.23862,20.65456 21.03256,30.10893 16.77231,20.3455 45.37225,32.2415 52.69913,57.57068 3.19727,11.05298 1.6041,22.85326 -0.0137,34.24507 -1.3866,9.76407 -2.77322,19.52817 -4.15985,29.29224 -1.0791,7.59863 -2.11386,15.60931 0.73538,22.73569 3.34277,8.36084 11.34241,13.83688 16.51462,21.20749 8.80081,12.54153 8.15744,30.90353 -1.49963,42.79834 -4.18805,5.15848 -9.74042,9.04874 -14.13116,14.03583 -4.39074,4.98709 -7.64764,11.80563 -5.80865,18.19058 3.52286,12.23126 22.70462,15.16449 24.80847,27.7179 1.07565,6.41818 -3.35748,12.82758 -9.1658,15.76245 -5.80832,2.93487 -12.64572,3.02011 -19.10587,2.23492 -24.55347,-2.98438 -47.28705,-18.32629 -59.24158,-39.97961 -11.95456,-21.65335 -12.82504,-49.06561 -2.26843,-71.43384 8.67035,-18.37146 24.78519,-34.60559 24.60965,-54.91949 -0.0956,-11.0668 -5.17172,-21.4032 -10.13535,-31.29489 -10.15924,-20.24577 -20.31851,-40.49153 -30.47775,-60.7373 -5.44196,-10.84496 -11.75745,-22.53171 -22.96112,-27.19061 -8.65872,-3.60063 -18.48325,-2.20412 -27.74442,-0.73141 -9.26117,1.47271 -19.07155,2.90622 -27.75604,-0.63181 -8.68449,-3.53803 -15.24644,-14.04982 -11.1087,-22.4651"
                 fill="#2f2e41"
                 id="path29606" />
              <path
                 d="m 240.47141,163.72575 c -16.68272,-5.49146 -35.39705,3.32417 -46.6913,16.77441 -11.29425,13.45026 -16.77287,30.70596 -21.992,47.47588 -2.98952,9.60582 -5.97903,19.21164 -8.96854,28.81747 -2.81226,9.03625 -5.6245,18.07248 -8.43675,27.10873 -3.30785,10.62869 -6.64275,21.9205 -3.92802,32.71591 1.96262,7.8046 7.01262,14.89124 7.12131,22.93808 0.11353,8.40567 -5.15047,15.7851 -9.7636,22.81268 -4.61311,7.02759 -8.94347,15.37701 -6.74557,23.49103 3.34306,12.34174 20.502,19.12564 19.56139,31.87747 -0.3139,4.25571 -2.7749,8.19205 -2.73022,12.45908 0.0568,5.42914 4.30745,10.1203 9.2874,12.28336 4.97997,2.16306 10.5818,2.28052 16.01041,2.18506 16.65134,-0.29279 33.27257,-2.27026 49.52779,-5.89246 6.25403,-1.39359 12.61382,-3.10281 17.81967,-6.83832 5.20585,-3.73551 9.0894,-9.92447 8.41191,-16.29596 -1.05576,-9.92862 -11.73091,-15.56143 -17.11801,-23.96805 -5.29137,-8.25723 -5.16869,-18.71957 -7.45038,-28.25763 C 231.25108,350.30403 223.50661,338.86 217.69288,326.7 195.83593,280.98394 203.48716,222.71282 236.40513,184.18891 c 2.91051,-3.40616 6.0903,-6.83273 7.30457,-11.14532 1.21426,-4.31261 -0.35107,-9.80727 -4.5697,-11.31593"
                 fill="#2f2e41"
                 id="path29608" />
            </g>
            <path
               d="m 4.2715881,390.61238 c -60.7034801,-60.7034 -141.4158281,-94.1361 -227.2633181,-94.1361 -85.84749,0 -166.55984,33.4327 -227.26332,94.1361 -60.70342,60.7035 -94.1362,141.4158 -94.1362,227.2634 0,78.3562 27.85059,152.4352 78.88786,210.9273 4.86936,5.5943 9.95619,11.0436 15.24835,16.3359 1.24455,1.2445 2.50113,2.489 3.76987,3.6973 3.38314,3.2744 6.82667,6.4763 10.33069,9.5815 2.12656,1.897 4.27725,3.7578 6.45212,5.5822 1.70369,1.4379 3.40733,2.8516 5.13514,4.2411 0.0363,0.036 0.0605,0.06 0.0967,0.085 56.92153,45.9746 127.27907,70.9495 201.47884,70.9495 80.48277,0 156.446618,-29.3851 215.6517981,-83.0805 3.95106,-3.5765 7.81752998,-7.2617 11.61152,-11.0557 1.19617,-1.1962 2.39234,-2.4045 3.56434,-3.6248 3.2622999,-3.359 6.4279999,-6.7784 9.5211999,-10.2461 52.4026,-58.8668 81.0506,-133.9245 81.0506,-213.3923 0,-85.8476 -33.4328,-166.5599 -94.1361799,-227.2633 z m 12.3001799,437.6471 c -3.0207,3.4314 -6.1138,6.8145 -9.2794999,10.1132 -4.92977,5.1351 -10.0166,10.1132 -15.27254,14.91 -1.99366,1.8366 -4.0114601,3.6248 -6.0534301,5.401 -20.62517,17.9428 -43.58227,33.2636 -68.33969,45.4671 -8.68745,4.2894 -17.59239,8.1921 -26.702718,11.684 -35.39024,13.5809 -73.80108,21.0239 -113.91562,21.0239 -38.71291,0 -75.83096,-6.9355 -110.18204,-19.6224 -14.10047,-5.1955 -27.72978,-11.3697 -40.81528,-18.4381 -1.92118,-1.0392 -3.83026,-2.0903 -5.72726,-3.1657 -9.98024,-5.6547 -19.63436,-11.829 -28.90176,-18.4986 -6.92336,-4.966 -13.64133,-10.1978 -20.12972,-15.7075 -2.27155,-1.9211 -4.51892,-3.8664 -6.73007,-5.8601 -3.60069,-3.2019 -7.12882,-6.5005 -10.57236,-9.8836 -6.52467,-6.3918 -12.75932,-13.0493 -18.71607,-19.9728 -48.10118,-55.8702 -77.20842,-128.5113 -77.20842,-207.8341 0,-175.8877 143.09527,-318.983 318.98298,-318.983 175.887708,0 318.982998,143.0953 318.982998,318.983 0,80.5432 -30.0014,154.1993 -79.4195,210.3837 z"
               fill="#3f3d56"
               id="path29610"
               style="stroke-width:1.20827" />
          </g>
          <g
             id="g33960"
             transform="translate(10.281017,399.81734)">
            <path
               d="m -661.90826,-170.17803 c -60.7034,-60.7035 -141.4158,-94.1362 -227.2633,-94.1362 -85.8475,0 -166.55984,33.4327 -227.26334,94.1362 -60.7034,60.7034 -94.1362,141.4157 -94.1362,227.2633 0,78.3562 27.8506,152.4351 78.8878,210.9274 4.8694,5.5943 9.9562,11.0436 15.2484,16.3358 1.2445,1.2446 2.5011,2.4891 3.7699,3.6973 3.3831,3.2745 6.8266,6.4763 10.3306,9.5816 2.1266,1.897 4.2773,3.7578 6.4522,5.5822 1.7037,1.4378 3.4073,2.8516 5.1351,4.241 0.036,0.036 0.061,0.06 0.097,0.085 56.9215,45.9746 127.27914,70.9496 201.47894,70.9496 80.48269,0 156.44659,-29.3851 215.6518,-83.0806 3.9511,-3.5765 7.8176,-7.2617 11.6116,-11.0556 1.1961,-1.1962 2.3923,-2.4045 3.5643,-3.6249 3.2623,-3.3589 6.428,-6.7783 9.5212,-10.246 52.4026,-58.8669 81.0506,-133.9246 81.0506,-213.3924 0,-85.8475 -33.4327,-166.5599 -94.1362,-227.2633 z m 12.3002,437.647 c -3.0207,3.4315 -6.1138,6.8146 -9.2795,10.1133 -4.9298,5.1351 -10.0166,10.1132 -15.2725,14.91 -1.9937,1.8365 -4.0115,3.6248 -6.0535,5.401 -20.6251,17.9427 -43.5822,33.2635 -68.33961,45.4671 -8.68749,4.2893 -17.59239,8.192 -26.70279,11.6839 -35.39021,13.581 -73.8011,21.0239 -113.9156,21.0239 -38.7129,0 -75.831,-6.9355 -110.182,-19.6223 -14.10054,-5.1956 -27.72984,-11.3698 -40.81534,-18.4381 -1.9212,-1.0392 -3.8303,-2.0904 -5.7273,-3.1658 -9.9802,-5.6547 -19.6343,-11.8289 -28.9017,-18.4986 -6.9234,-4.9659 -13.6414,-10.1977 -20.1298,-15.7074 -2.2715,-1.9212 -4.5189,-3.8664 -6.73,-5.8601 -3.6007,-3.202 -7.1289,-6.5005 -10.5724,-9.8837 -6.5247,-6.3917 -12.7593,-13.0492 -18.7161,-19.9727 -48.1011,-55.8703 -77.2084,-128.5114 -77.2084,-207.8342 0,-175.8877 143.0953,-318.983 318.98304,-318.983 175.8878,0 318.983,143.0953 318.983,318.983 0,80.5431 -30.0014,154.1993 -79.4195,210.3838 z"
               fill="#3f3d56"
               id="path29610-3"
               style="stroke-width:1.20827"
               transform="matrix(0.2989893,0,0,0.2989893,146.04643,181.8373)" />
            <g
               id="g29827"
               transform="matrix(0.2989893,0,0,0.2989893,-607.6157,1039.9644)">
              <g
                 id="g33131"
                 transform="translate(984.8442,-3042.5073)">
                <path
                   d="M 750.99875,464.92273 V 589.82849 H 799.573 V 463.18787 l -11.27588,0.40271 v -25.55737 h -8.17871 l -1.34766,-56.60376 c 3.30029,-2.15052 5.62305,-7.25818 5.62305,-13.222 a 21.66875,21.66875 0 0 0 -0.59375,-5.084 10.4004,10.4004 0 0 0 1.12012,-12.66773 10.40734,10.40734 0 1 0 13.4873,-15.85144 10.40972,10.40972 0 1 0 -14.01367,-9.767 c 0,0.15247 0.005,0.30371 0.0112,0.45435 a 10.41549,10.41549 0 0 0 -13.33789,8.38257 10.409,10.409 0 1 0 -7.48535,19.1272 c -0.002,0.0756 -0.006,0.15051 -0.006,0.22656 a 50.59934,50.59934 0 0 0 3.67627,8.43457 21.02593,21.02593 0 0 0 -1.07373,6.74487 c 0,5.96387 2.32226,11.07153 5.62255,13.222 l -1.34765,56.60376 h -8.17822 v 26.48674 z m 30.332,-119.26843 0.0269,6.1e-4 c 0.15039,0 0.29931,-0.005 0.44775,-0.0112 q 0.14063,0.46143 0.32178,0.90356 a 10.45284,10.45284 0 0 0 -0.79636,-0.89294 z"
                   transform="translate(-156,-219.73719)"
                   fill="#e2e2e2"
                   id="path29703" />
                <rect
                   x="724.25378"
                   y="508.14822"
                   width="147.45827"
                   height="170.58897"
                   transform="rotate(180,719.98294,483.5741)"
                   fill="#3f3d56"
                   id="rect29705" />
                <rect
                   x="778.10498"
                   y="644.04114"
                   width="39.755909"
                   height="34.69606"
                   transform="rotate(180,719.98294,551.52056)"
                   fill="#e2e2e2"
                   id="rect29707" />
                <path
                   d="m 675.11058,283.692 c -0.003,0.126 -0.01,0.2509 -0.01,0.37748 a 17.2926,17.2926 0 0 0 5.26,12.43748 17.32924,17.32924 0 0 0 0.86719,1.62029 35.02934,35.02934 0 0 0 -1.79014,11.24144 c 0,13.17395 6.796,23.85355 15.17953,23.85355 8.38353,0 15.17952,-10.6796 15.17952,-23.85355 a 36.10523,36.10523 0 0 0 -0.98931,-8.47345 17.33406,17.33406 0 0 0 1.86674,-21.11261 17.34558,17.34558 0 1 0 22.47882,-26.41915 17.34962,17.34962 0 1 0 -23.35625,-16.27825 c 0,0.254 0.008,0.506 0.0191,0.75729 a 17.3592,17.3592 0 0 0 -22.23,13.97086 17.34835,17.34835 0 1 0 -12.4756,31.87862 z m 29.62669,-11.91071 c 0.25024,0 0.49871,-0.008 0.74648,-0.0189 q 0.23348,0.76911 0.53578,1.506 a 17.38709,17.38709 0 0 0 -1.32708,-1.48825 z"
                   transform="translate(-156,-219.73719)"
                   fill="#e2e2e2"
                   id="path29709" />
                <path
                   d="m 685.94113,451.76722 h 17.3501 l -0.61963,-26.02 v -0.01 l -2.27051,-95.41 a 11.09469,11.09469 0 0 1 -11.56982,0 l -2.27,95.41 v 0.01 z"
                   transform="translate(-156,-219.73719)"
                   fill="#3b0b47"
                   id="path29711" />
                <polygon
                   points="498.141,250.82 498.141,459 579.092,459 579.092,247.93 560.301,248.6 560.301,206.01 516.931,206.01 516.931,250.15 "
                   fill="#3b0b47"
                   id="polygon29713" />
                <path
                   d="m 881.84129,283.692 c -0.003,0.126 -0.01,0.2509 -0.01,0.37748 a 17.2926,17.2926 0 0 0 5.26,12.43748 17.32924,17.32924 0 0 0 0.86719,1.62029 35.02934,35.02934 0 0 0 -1.79014,11.24144 c 0,13.17395 6.796,23.85355 15.17952,23.85355 8.38352,0 15.17953,-10.6796 15.17953,-23.85355 a 36.10576,36.10576 0 0 0 -0.98931,-8.47345 17.33406,17.33406 0 0 0 1.86674,-21.11261 17.34558,17.34558 0 1 0 22.47881,-26.41915 17.34962,17.34962 0 1 0 -23.35624,-16.27825 c 0,0.254 0.008,0.506 0.0191,0.75729 a 17.3592,17.3592 0 0 0 -22.23,13.97086 17.34835,17.34835 0 1 0 -12.4756,31.87862 z M 911.468,271.78128 c 0.25024,0 0.49871,-0.008 0.74648,-0.0189 q 0.23347,0.76911 0.53577,1.506 a 17.38528,17.38528 0 0 0 -1.32707,-1.48825 z"
                   transform="translate(-156,-219.73719)"
                   fill="#e2e2e2"
                   id="path29715" />
                <path
                   d="m 892.67428,451.76711 h 17.348 L 907.131,330.33089 a 17.10079,17.10079 0 0 1 -11.56535,0 z"
                   transform="translate(-156,-219.73719)"
                   fill="#3b0b47"
                   id="path29717" />
                <polygon
                   points="767.031,206.01 723.661,206.01 723.661,250.15 704.871,250.82 704.871,459 785.831,459 785.831,247.93 779.181,248.17 767.031,248.6 "
                   fill="#3b0b47"
                   id="polygon29719" />
                <rect
                   x="819.98291"
                   y="528.73718"
                   width="20"
                   height="20"
                   transform="rotate(180,751.98294,428.8686)"
                   fill="#ffffff"
                   id="rect29721" />
                <rect
                   x="787.98291"
                   y="528.73718"
                   width="20"
                   height="20"
                   transform="rotate(180,719.98294,428.8686)"
                   fill="#ffffff"
                   id="rect29723" />
                <rect
                   x="755.98291"
                   y="528.73718"
                   width="20"
                   height="20"
                   transform="rotate(180,687.98294,428.8686)"
                   fill="#ffffff"
                   id="rect29725" />
                <rect
                   x="819.98291"
                   y="560.73718"
                   width="20"
                   height="20"
                   transform="rotate(180,751.98294,460.8686)"
                   fill="#ffffff"
                   id="rect29727" />
                <rect
                   x="787.98291"
                   y="560.73718"
                   width="20"
                   height="20"
                   transform="rotate(180,719.98294,460.8686)"
                   fill="#ffffff"
                   id="rect29729" />
                <rect
                   x="755.98291"
                   y="560.73718"
                   width="20"
                   height="20"
                   transform="rotate(180,687.98294,460.8686)"
                   fill="#ffffff"
                   id="rect29731" />
                <rect
                   x="819.98291"
                   y="592.73718"
                   width="20"
                   height="20"
                   transform="rotate(180,751.98294,492.8686)"
                   fill="#ffffff"
                   id="rect29733" />
                <rect
                   x="787.98291"
                   y="592.73718"
                   width="20"
                   height="20"
                   transform="rotate(180,719.98294,492.8686)"
                   fill="#ffffff"
                   id="rect29735" />
                <rect
                   x="755.98291"
                   y="592.73718"
                   width="20"
                   height="20"
                   transform="rotate(180,687.98294,492.8686)"
                   fill="#ffffff"
                   id="rect29737" />
                <rect
                   x="684.61761"
                   y="520.73718"
                   width="20"
                   height="20"
                   transform="rotate(180,616.61758,420.8686)"
                   fill="#ffffff"
                   id="rect29739" />
                <rect
                   x="684.61761"
                   y="552.73718"
                   width="20"
                   height="20"
                   transform="rotate(180,616.61758,452.8686)"
                   fill="#ffffff"
                   id="rect29741" />
                <rect
                   x="684.61761"
                   y="584.73718"
                   width="20"
                   height="20"
                   transform="rotate(180,616.61758,484.8686)"
                   fill="#ffffff"
                   id="rect29743" />
                <rect
                   x="684.61761"
                   y="616.73718"
                   width="20"
                   height="20"
                   transform="rotate(180,616.61758,516.8686)"
                   fill="#ffffff"
                   id="rect29745" />
                <rect
                   x="891.1814"
                   y="520.73718"
                   width="20"
                   height="20"
                   transform="rotate(180,823.18137,420.8686)"
                   fill="#ffffff"
                   id="rect29747" />
                <rect
                   x="891.1814"
                   y="552.73718"
                   width="20"
                   height="20"
                   transform="rotate(180,823.18137,452.8686)"
                   fill="#ffffff"
                   id="rect29749" />
                <rect
                   x="891.1814"
                   y="584.73718"
                   width="20"
                   height="20"
                   transform="rotate(180,823.18137,484.8686)"
                   fill="#ffffff"
                   id="rect29751" />
                <rect
                   x="891.1814"
                   y="616.73718"
                   width="20"
                   height="20"
                   transform="rotate(180,823.18137,516.8686)"
                   fill="#ffffff"
                   id="rect29753" />
              </g>
            </g>
          </g>
        </g>
      </g>
    </g>
  </g>
</svg>
