<svg
   width="100%"
   height="100%"
   viewBox="0 0 540 634"
   xmlns="http://www.w3.org/2000/svg"
   >
  
          <circle
             cx="45.040749"
             cy="45.040749"
             r="45.040749"
             fill="#f2f2f2"
             id="circle3682"
             style="fill:#b2b2b2;fill-opacity:1" />
          <circle
             cx="32.67239"
             cy="21.78101"
             r="6.3589902"
             fill="#2f2e41"
             id="circle3684" />
          <circle
             cx="42.846779"
             cy="36.194729"
             r="16.109449"
             fill="#2f2e41"
             id="circle3686" />
          <circle
             cx="44.17981"
             cy="39.209438"
             r="13.09075"
             fill="#9e616a"
             id="circle3688" />
          <path
             d="m 341.52051,126.54338 a 14.995,14.995 0 0 0 -22.79776,13.08671 c 6.67041,1.67475 13.6781,2.95637 20.79162,0.40058 l 1.6799,-4.11144 0.99039,4.11449 c 2.16631,0.88545 4.33822,1.63463 6.51013,-0.009 a 15.31077,15.31077 0 0 0 -7.17428,-13.48179 z"
             transform="translate(-288.45074,-100.67815)"
             fill="#2f2e41"
             id="path3690" />
          <path
             d="m 315.20251,105.19688 a 13.00725,13.00725 0 0 0 -13.57587,2.09136 14.71151,14.71151 0 0 0 -4.69517,13.09237 c 0.72106,4.88193 3.689,9.08591 6.42467,13.1931 2.73567,4.10719 5.40843,8.60772 5.40538,13.54259 a 13.42456,13.42456 0 0 1 -13.3979,13.41627 c 4.17161,1.7959 8.52567,3.627 13.06246,3.41411 4.53679,-0.21289 9.292,-3.12943 10.032,-7.61051 0.53325,-3.22879 -1.05085,-6.37726 -2.37205,-9.37124 a 66.28853,66.28853 0 0 1 -4.63273,-15.25017 15.32948,15.32948 0 0 1 0.0885,-7.55123 8.86707,8.86707 0 0 1 8.80874,-5.81886 l 1.499,-1.34862 a 11.67018,11.67018 0 0 0 -6.64708,-11.79917 z"
             transform="translate(-288.45074,-100.67815)"
             fill="#2f2e41"
             id="path3692" />
          <path
             d="m 367.38124,175.85458 a 45.025,45.025 0 0 1 -63.01495,4.55411 l 3.86324,-10.77977 a 11.5924,11.5924 0 0 1 9.8467,-6.76166 l 2.45771,-0.15088 5.86038,-5.05437 c 0,0 15.79048,-0.56382 15.55621,-0.83381 l 9.56482,5.75318 -0.008,-0.0397 3.76,0.23029 a 11.58737,11.58737 0 0 1 9.84673,6.76166 z"
             transform="translate(-288.45074,-100.67815)"
             fill="#3b0b47"
             id="path3694" />
          <path
             d="m 378.53218,325.17934 a 45.04076,45.04076 0 1 1 -44.96083,-45.12054 44.92429,44.92429 0 0 1 44.96083,45.12054 z"
             transform="translate(-288.45074,-100.67815)"
             fill="#f2f2f2"
             id="path3696"
             style="fill:#b2b2b2;fill-opacity:1" />
          <path
             d="m 312.61552,310.44775 c 1.86242,-5.93545 6.09761,-11.37924 11.95479,-13.38575 5.85753,-2.0065 14.43442,1.05006 18.838,5.43871 8.05494,8.02771 10.02065,35.60583 4.48657,44.32082 -1.10074,-0.0583 -4.899,-0.10136 -6.01308,-0.14309 l -1.576,-5.25275 v 5.201 q -2.66234,-0.0823 -5.36634,-0.1136 a 23.35468,23.35468 0 0 1 -23.058,-22.77843 c -0.14424,-5.78066 1.2e-4,-10.94788 0.73406,-13.28691 z"
             transform="translate(-288.45074,-100.67815)"
             fill="#2f2e41"
             id="path3698" />
          <circle
             cx="44.372742"
             cy="216.60481"
             r="12.8363"
             fill="#ffb6b6"
             id="circle3700" />
          <path
             d="m 321.74535,306.00958 14.77977,-7.40059 v 0 A 18.57669,18.57669 0 0 1 347.40546,314 l 0.36839,4.41268 -6.18905,-1.57546 -0.678,-5.64247 -1.051,5.20234 -2.85619,-0.72673 0.0272,-8.75991 -2.858,8.75366 -10.20111,-2.34369 z"
             transform="translate(-288.45074,-100.67815)"
             fill="#2f2e41"
             id="path3702" />
          <path
             d="m 366.91472,354.90561 a 45.025,45.025 0 0 1 -63.01495,4.55411 L 307.763,348.68 a 11.59241,11.59241 0 0 1 9.84671,-6.76166 l 2.45771,-0.15088 5.86038,-5.05437 c 0,0 15.79048,-0.56382 15.55621,-0.83381 l 9.56482,5.75317 -0.008,-0.0397 3.76,0.23029 a 11.58735,11.58735 0 0 1 9.84673,6.76166 z"
             transform="translate(-288.45074,-100.67815)"
             fill="#3b0b47"
             id="path3704" />
          <circle
             cx="45.040749"
             cy="403.47235"
             r="45.040749"
             fill="#f2f2f2"
             id="circle3706"
             style="fill:#b2b2b2;fill-opacity:1" />
          <path
             d="m 61.444546,388.41002 c -1.86242,-5.93545 -6.09761,-11.37924 -11.95479,-13.38575 -5.85753,-2.0065 -14.43442,1.05006 -18.838,5.43871 -8.05494,8.02771 -10.020646,35.60583 -4.48657,44.32082 1.10074,-0.0583 4.899,-0.10136 6.01308,-0.14309 l 1.576,-5.25275 v 5.201 q 2.66234,-0.0823 5.36634,-0.1136 a 23.35468,23.35468 0 0 0 23.058,-22.77843 c 0.14424,-5.78066 -1.2e-4,-10.94788 -0.73406,-13.28691 z"
             fill="#2f2e41"
             id="path3698-9" />
          <circle
             cx="43.797619"
             cy="394.67444"
             r="14.37749"
             fill="#ffb6b6"
             id="circle3708" />
          <path
             d="m 367.282,534.28619 a 45.025,45.025 0 0 1 -63.015,4.55411 l 3.86324,-10.77977 a 11.59238,11.59238 0 0 1 9.8467,-6.76166 l 2.45771,-0.15088 5.86038,-5.05437 c 0,0 15.79048,-0.56382 15.55621,-0.83381 l 9.56482,5.75318 -0.008,-0.0397 3.76,0.23029 a 11.58737,11.58737 0 0 1 9.84673,6.76166 z"
             transform="translate(-288.45074,-100.67815)"
             fill="#3b0b47"
             id="path3710" />
          <path
             d="m 391.35677,222.68422 h -99.04623 a 3.85895,3.85895 0 1 1 0,-7.71789 h 99.04623 c 4.97655,-0.0695 5.02633,7.78798 0,7.71789 z"
             transform="translate(-288.45074,-100.67815)"
             fill="#e4e4e4"
             id="path3714"
             style="fill:#b2b2b2;fill-opacity:1" />
          <path
             d="m 524.78314,242.87027 h -232.4726 a 3.858945,3.858945 0 1 1 0,-7.71789 h 232.4726 c 4.97656,-0.0695 5.02633,7.78799 0,7.71789 z"
             transform="translate(-288.45074,-100.67815)"
             fill="#e4e4e4"
             id="path3716"
             style="fill:#b2b2b2;fill-opacity:1" />
          <circle
             cx="317.31821"
             cy="128.24016"
             r="24.80612"
             fill="#3b0b47"
             id="circle3718" />
          <path
             d="m 602.3849,241.82874 a 2.75852,2.75852 0 0 1 -2.20725,-1.104 l -6.76749,-9.02346 a 2.75928,2.75928 0 1 1 4.41495,-3.311 l 4.42752,5.90291 11.37152,-17.05705 a 2.75939,2.75939 0 1 1 4.5919,3.06127 l -13.535,20.30247 a 2.76053,2.76053 0 0 1 -2.21938,1.22792 c -0.0256,4.9e-4 -0.0512,9.4e-4 -0.0768,9.4e-4 z"
             transform="translate(-288.45074,-100.67815)"
             fill="#ffffff"
             id="path3720" />
          <path
             d="m 391.35677,401.9 h -99.04623 a 3.858945,3.858945 0 1 1 0,-7.71789 h 99.04623 c 4.97655,-0.0694 5.02633,7.788 0,7.71789 z"
             transform="translate(-288.45074,-100.67815)"
             fill="#e4e4e4"
             id="path3722"
             style="fill:#b2b2b2;fill-opacity:1" />
          <path
             d="m 524.78314,422.08608 h -232.4726 a 3.85895,3.85895 0 1 1 0,-7.71789 h 232.4726 c 4.97656,-0.0695 5.02633,7.78798 0,7.71789 z"
             transform="translate(-288.45074,-100.67815)"
             fill="#e4e4e4"
             id="path3724"
             style="fill:#b2b2b2;fill-opacity:1" />
          <circle
             cx="317.31821"
             cy="307.45596"
             r="24.80612"
             fill="#3b0b47"
             id="circle3726" />
          <path
             d="m 602.3849,421.04454 a 2.75854,2.75854 0 0 1 -2.20725,-1.104 l -6.76749,-9.02347 a 2.75928,2.75928 0 1 1 4.41495,-3.311 l 4.42752,5.90292 11.37152,-17.05699 a 2.75939,2.75939 0 0 1 4.5919,3.06127 l -13.535,20.30247 a 2.7605,2.7605 0 0 1 -2.21938,1.22792 c -0.0256,4.3e-4 -0.0512,8.8e-4 -0.0768,8.8e-4 z"
             transform="translate(-288.45074,-100.67815)"
             fill="#ffffff"
             id="path3728" />
          <path
             d="m 391.35677,581.11582 h -99.04623 a 3.85894,3.85894 0 1 1 0,-7.71788 h 99.04623 c 4.97655,-0.0695 5.02633,7.78798 0,7.71788 z"
             transform="translate(-288.45074,-100.67815)"
             fill="#e4e4e4"
             id="path3730"
             style="fill:#b2b2b2;fill-opacity:1" />
          <path
             d="m 524.78314,601.30188 h -232.4726 a 3.858945,3.858945 0 1 1 0,-7.71789 h 232.4726 c 4.97656,-0.0695 5.02633,7.78801 0,7.71789 z"
             transform="translate(-288.45074,-100.67815)"
             fill="#e4e4e4"
             id="path3732"
             style="fill:#b2b2b2;fill-opacity:1" />
          <circle
             cx="317.31821"
             cy="486.67178"
             r="24.80612"
             fill="#3b0b47"
             id="circle3734" />
          <path
             d="m 602.3849,600.26034 a 2.75854,2.75854 0 0 1 -2.20725,-1.104 l -6.76749,-9.02347 a 2.75928,2.75928 0 1 1 4.41495,-3.311 l 4.42752,5.90291 11.37152,-17.05705 a 2.75939,2.75939 0 1 1 4.5919,3.06127 l -13.535,20.30246 a 2.76054,2.76054 0 0 1 -2.21938,1.22793 c -0.0256,5e-4 -0.0512,9.5e-4 -0.0768,9.5e-4 z"
             transform="translate(-288.45074,-100.67815)"
             fill="#ffffff"
             id="path3736" />
          <polygon
             points="483.481,401.478 467.481,354.478 423.481,355.478 418.481,401.478 "
             fill="#9e616a"
             id="polygon3738" />
          <polygon
             points="458.107,672.331 452.004,622.848 470.938,622.849 470.936,672.331 "
             fill="#9e616a"
             id="polygon3740" />
          <path
             d="m 766.288,797.36811 h -9.10306 l -1.62486,-8.59437 -4.16149,8.59437 h -24.1435 a 5.42724,5.42724 0 0 1 -3.08394,-9.89335 l 19.28028,-13.31565 v -8.68862 l 20.2795,1.21041 z"
             transform="translate(-288.45074,-100.67815)"
             fill="#2f2e41"
             id="path3742" />
          <polygon
             points="436.107,672.331 430.004,622.848 448.938,622.849 448.936,672.331 "
             fill="#9e616a"
             id="polygon3744" />
          <path
             d="m 744.288,797.36811 h -9.10306 l -1.62486,-8.59437 -4.16149,8.59437 h -24.1435 a 5.42724,5.42724 0 0 1 -3.08394,-9.89335 l 19.28028,-13.31565 v -8.68862 l 20.2795,1.21041 z"
             transform="translate(-288.45074,-100.67815)"
             fill="#2f2e41"
             id="path3746" />
          <path
             d="m 707.12424,493.156 64.80755,-1 c 0,0 21.777,45.89682 12.99612,74.25144 l -25.43631,83.26379 -20.90836,106.87671 -19.23162,-5.83678 -5.388,-8.10274 3.96814,-14.45239 -1.63939,-8.091 -6.36061,-73.909 v -1 l -3,-31 c -13.50374,-46.144 -9.911,-73.99422 0.19244,-120.99993 z"
             transform="translate(-288.45074,-100.67815)"
             fill="#2f2e41"
             id="path3748" />
          <polygon
             points="473.481,634.478 476.138,641.286 472.866,657.42 453.899,661.102 435.92,583.95 464.226,544.028 476.138,630.337 "
             fill="#2f2e41"
             id="polygon3750" />
          <path
             d="m 708.86831,479.75271 c -0.0151,0 -0.0303,4.9e-4 -0.0459,4.9e-4 a 2.50308,2.50308 0 0 1 -2.40185,-1.75928 c -3.13916,-9.91943 -6.52734,-22.09766 -4.84229,-23.7832 a 6.89617,6.89617 0 0 1 2.51612,-1.374 c 2.01758,-0.76513 3.61133,-1.36963 2.36328,-5.11426 -0.89307,-2.67822 1.90018,-5.64829 0.49344,-7.4647 -1.79444,-2.31689 -1.37207,-4.53662 0,-6 1.28857,-1.37549 -2.42313,-7.75405 -0.35233,-14.2936 a 1.50489,1.50489 0 0 0 -0.1582,-1.25341 C 703.84146,414.54421 696.26465,405.16309 705.5,396 c 8.48438,-8.418 12.11343,-24.86985 14.53189,-26.07444 a 1.506,1.506 0 0 0 0.74316,-0.83643 l 3.20215,-8.77587 a 2.52933,2.52933 0 0 1 2.36914,-1.65723 h 24.82617 a 2.51086,2.51086 0 0 1 1.96973,0.94629 l 11.68945,14.6123 a 2.44858,2.44858 0 0 1 0.35449,0.59571 c 1.54737,3.69677 14.92286,36.479 8.186,48.99072 l -1.23682,2.29248 c -5.94336,11.00732 -8.40381,15.56348 -5.85009,18.11719 2.353,2.353 1.3496,4.09619 0.75048,5.13769 -0.186,0.32276 -0.39648,0.68848 -0.35986,0.85156 0.68994,3.1084 -1.05859,3.55811 -1.89844,3.77442 -0.0571,0.0146 -0.123,0.0317 -0.18408,0.0488 a 6.20515,6.20515 0 0 0 0.6919,0.77929 2.74817,2.74817 0 0 1 1.00146,2.01758 3.12025,3.12025 0 0 1 -1.44043,2.105 c -0.38574,0.32276 -0.82324,0.68848 -0.832,0.93311 -0.005,0.144 0.16309,0.32812 0.26367,0.42431 0.43359,0.41651 1.02637,0.896 1.65381,1.40381 1.81689,1.47071 3.87646,3.13721 3.96045,4.73633 a 1.91115,1.91115 0 0 1 -0.60693,1.49512 l -4.67286,4.6709 c -0.33691,0.59082 1.207,4.251 1.90235,5.07324 l 0.32177,0.38037 -0.23388,0.19922 a 2.43308,2.43308 0 0 1 0.15429,2.24316 2.30708,2.30708 0 0 1 -2.15039,1.32666 z"
             transform="translate(-288.45074,-100.67815)"
             fill="#3f3d56"
             id="path3752"
             style="fill:#3b0b47;fill-opacity:1" />
          <path
             d="m 627.45426,411.69642 a 10.44891,10.44891 0 0 0 14.65129,0.32967 10.26751,10.26751 0 0 0 1.20329,-1.35778 l 35.21548,10.67387 -5.40348,-18.1495 -32.61284,-7.35359 a 10.48627,10.48627 0 0 0 -14.37624,3.17769 10.21,10.21 0 0 0 1.32245,12.67958 z"
             transform="translate(-288.45074,-100.67815)"
             fill="#9e616a"
             id="path3754" />
          <path
             d="M 649.5633,415.48211 654.757,398 l 17.90631,-0.0991 3.68864,4.89595 5.95034,-2.132 18.90606,4.81284 19.974,-32.27285 a 12.96873,12.96873 0 0 1 19.78125,-2.74311 v 0 a 12.89735,12.89735 0 0 1 2.5021,16.00782 l -28.03911,49.00765 z"
             transform="translate(-288.45074,-100.67815)"
             fill="#3f3d56"
             id="path3756"
             style="fill:#3b0b47;fill-opacity:1" />
          <path
             d="m 675.0487,495.21357 a 10.4489,10.4489 0 0 0 10.79006,-9.91683 10.26745,10.26745 0 0 0 -0.0736,-1.81274 l 32.78337,-16.71264 -16.47418,-9.33828 -28.606,17.30225 a 10.48628,10.48628 0 0 0 -8.16091,12.25453 10.21,10.21 0 0 0 9.74123,8.22369 z"
             transform="translate(-288.45074,-100.67815)"
             fill="#9e616a"
             id="path3758" />
          <path
             d="m 693.61007,482.61927 -8.3725,-16.20186 12.83935,-12.48188 6.05227,0.9728 2.81177,-5.6609 16.96435,-9.634 -7.96909,-37.1078 a 12.96873,12.96873 0 0 1 12.3584,-15.68734 v 0 a 12.89732,12.89732 0 0 1 12.89832,9.8053 l 13.75372,54.76108 z"
             transform="translate(-288.45074,-100.67815)"
             fill="#3f3d56"
             id="path3760"
             style="fill:#3b0b47;fill-opacity:1" />
          <circle
             cx="451.54651"
             cy="229.49081"
             r="23.83777"
             fill="#9e616a"
             id="circle3762" />
          <path
             d="m 743.59452,301.15744 2.89212,0.76981 0.98221,0.26144 11.00625,2.92958 c 9.75543,2.59665 15.2956,13.59859 12.37434,24.57354 5.39382,9.35076 0.71989,18.02256 -7.77417,26.4367 a 119.65576,119.65576 0 0 0 -32.82018,0.0395 l 0.1898,-6.30088 -4.81881,7.082 q -4.12623,0.798 -8.27852,1.94355 c 6.2918,-12.39069 10.9304,-25.18875 11.72055,-35.87915 l -5.04,-1.34153 1.4681,-5.51556 -3.179,5.06016 -9.1372,-2.43209 v 0 a 24.857,24.857 0 0 1 30.41451,-17.62703 z"
             transform="translate(-288.45074,-100.67815)"
             fill="#2f2e41"
             id="path3764" />
          <circle
             cx="475.45932"
             cy="203.9872"
             r="11.22582"
             fill="#2f2e41"
             id="circle3766" />
          <path
             d="m 879.63111,796.58213 a 0.44053,0.44053 0 0 1 -0.69,0.3 18.26579,18.26579 0 0 0 -4.51,-2.39 c -0.01,-0.01 -0.01,0 -0.01,0 a 37.98348,37.98348 0 0 0 -6.24,-1.66 c -0.02,0 -0.03,-0.01 -0.05,-0.01 -0.86,-0.17 -1.72,-0.32 -2.58,-0.48 -4.18,-0.77 -8.43,-1.7 -12.05,-4.08 a 12.27657,12.27657 0 0 1 -5.63,-8.33 c -0.53,-3.35 0.14,-6.72 0.42,-10.06 0.02,-0.24 0.04,-0.49 0.05,-0.73 0.02,-0.31 0.03,-0.61 0.03,-0.91 a 19.40042,19.40042 0 0 0 -1.78,-8.8 34.905,34.905 0 0 0 -6.36,-8.94 q -1.995,-2.145 -4.16,-4.13 h -0.01 c -0.06,-0.06 -0.11,-0.11 -0.17,-0.16 0,-0.01 -0.01,-0.02 -0.02,-0.03 a 81.0738,81.0738 0 0 0 -20.75,-13.69995 c -0.27,-0.12006 -0.55005,-0.25 -0.83,-0.37006 -0.73,-0.33 -1.46,-0.63995 -2.2,-0.94995 0.35,-0.17005 0.71,-0.35 1.09,-0.51 a 82.98906,82.98906 0 0 1 23.09,14.66 c 0.23,0.2 0.46,0.41 0.68,0.62 q 2.59506,2.4 4.94,5.03 a 32.50569,32.50569 0 0 1 5.99,9.16 20.41206,20.41206 0 0 1 1.39,8.58 c -0.02,0.56 -0.06,1.12 -0.11,1.69 -0.31,3.37 -1,6.85 -0.23,10.22 0.88,3.84 3.86,6.52 7.32,8.16 a 31.63469,31.63469 0 0 0 7.16,2.22 c 5.1,1.07 10.37,1.59 14.83,4.33 h 0.01 c 0.0699,0.05 0.13995,0.09 0.19995,0.13 0.01,0 0.01,0 0.01,0.01 a 9.4857,9.4857 0 0 1 0.93,0.63 c 0.02,0.01 0.04,0.03 0.06,0.04 a 0.57133,0.57133 0 0 1 0.08,0.07 0.44419,0.44419 0 0 1 0.10005,0.38996 z"
             transform="translate(-288.45074,-100.67815)"
             fill="#ffffff"
             id="path3770" />
          <path
             d="m 836.68831,746.26507 a 12.20506,12.20506 0 0 0 -0.4048,-15.79909 c -0.39208,-0.43523 -1.08682,0.15359 -0.69422,0.58939 a 11.30162,11.30162 0 0 1 0.34651,14.69722 c -0.36991,0.4543 0.38472,0.96418 0.75251,0.51248 z"
             transform="translate(-288.45074,-100.67815)"
             fill="#ffffff"
             id="path3772" />
          <path
             d="m 848.66089,768.20136 a 23.52424,23.52424 0 0 1 -16.57968,-4.36165 c -0.47342,-0.34592 -0.98533,0.407 -0.51248,0.75251 a 24.46877,24.46877 0 0 0 17.26189,4.50362 c 0.58287,-0.0695 0.41,-0.96357 -0.16973,-0.89448 z"
             transform="translate(-288.45074,-100.67815)"
             fill="#ffffff"
             id="path3774" />
          <path
             d="m 815.18116,732.3621 c -0.02,0.04 -0.04,0.07 -0.06,0.11005 a 7.76361,7.76361 0 0 1 -5.39,3.92 c -0.27,-0.26 -0.56,-0.52 -0.85,-0.77 a 0.33377,0.33377 0 0 1 0.15,-0.05 6.90856,6.90856 0 0 0 5.26,-3.47 c 0.05,-0.08 0.1,-0.17 0.14,-0.25 a 0.45106,0.45106 0 0 1 0.63,-0.12 0.46978,0.46978 0 0 1 0.12,0.62995 z"
             transform="translate(-288.45074,-100.67815)"
             fill="#ffffff"
             id="path3776" />
          <path
             d="m 879.80115,795.13212 a 0.42578,0.42578 0 0 1 -0.15,0.35 0.57506,0.57506 0 0 1 -0.27,0.11005 0.39112,0.39112 0 0 1 -0.46,-0.29 c -1.38,-4.64 -4.76,-8.2 -7.96,-11.69 -2.88,-3.13 -5.71,-6.43 -7.16,-10.5 a 12.279,12.279 0 0 1 0.52,-10.05 17.72435,17.72435 0 0 1 1.73,-2.62 c 1.43,-1.82 3.13,-3.44 4.66,-5.16 0.16,-0.18005 0.32,-0.37 0.47,-0.55005 0.21,-0.23 0.4,-0.47 0.58,-0.71 a 19.3454,19.3454 0 0 0 3.87,-8.1 34.7966,34.7966 0 0 0 0.31,-10.97 q -0.29992,-2.91 -0.83,-5.78 c -0.02,-0.09 -0.03,-0.17 -0.05,-0.25 a 80.77135,80.77135 0 0 0 -8.32,-23.47 c -0.15,-0.27 -0.29,-0.54 -0.44,-0.8 -0.64,-1.16 -1.3,-2.30005 -2,-3.42005 0.24,-0.17 0.5,-0.32995 0.76,-0.48 a 82.83293,82.83293 0 0 1 5.97,11.63 81.25374,81.25374 0 0 1 4.87,16.05 c 0.07,0.3 0.12,0.61 0.17,0.91 0.42005,2.31 0.73,4.65 0.92005,6.98 a 32.33589,32.33589 0 0 1 -0.74,10.92 20.37612,20.37612 0 0 1 -4.07,7.71 q -0.51,0.645 -1.08,1.26 c -1.52,1.66 -3.2,3.26995 -4.57,5.08 a 15.11,15.11 0 0 0 -1.77,2.94 c -1.61,3.6 -0.85,7.54 0.93,10.92005 3.22,6.15 9.36,10.34 12.63,16.37 a 18.608,18.608 0 0 1 1.46,3.49 0.502,0.502 0 0 1 0.0199,0.12 z"
             transform="translate(-288.45074,-100.67815)"
             fill="#ffffff"
             id="path3778" />
          <path
             d="m 875.65739,729.44764 a 12.20507,12.20507 0 0 0 9.18894,-12.85841 c -0.051,-0.58356 -0.96023,-0.53171 -0.90915,0.0526 a 11.30162,11.30162 0 0 1 -8.57208,11.94353 c -0.56886,0.14 -0.27332,1.00146 0.29229,0.86225 z"
             transform="translate(-288.45074,-100.67815)"
             fill="#ffffff"
             id="path3780" />
          <path
             d="m 872.00967,754.17086 a 23.52427,23.52427 0 0 1 -10.61193,-13.46465 c -0.16973,-0.56123 -1.03178,-0.26827 -0.86225,0.29229 a 24.46878,24.46878 0 0 0 11.07116,13.98874 c 0.50721,0.29546 0.90748,-0.52253 0.403,-0.81638 z"
             transform="translate(-288.45074,-100.67815)"
             fill="#ffffff"
             id="path3782" />
          <path
             d="m 866.85114,705.40214 c -0.04,0.02 -0.07,0.03 -0.11,0.05 a 7.70347,7.70347 0 0 1 -5.72,0.27 6.28285,6.28285 0 0 1 0.31,-0.86005 6.83258,6.83258 0 0 0 4.97,-0.21 c 0.09,-0.03 0.17,-0.07 0.26,-0.11005 a 0.4575,0.4575 0 0 1 0.58,0.28 0.48083,0.48083 0 0 1 -0.29,0.5801 z"
             transform="translate(-288.45074,-100.67815)"
             fill="#ffffff"
             id="path3784" />
          <path
             d="m 555.02701,698.41565 h -281.3361 a 0.962635,0.962635 0 1 1 0,-1.92527 h 281.3361 a 0.962635,0.962635 0 1 1 0,1.92527 z"
             fill="#cccccc"
             id="path3786"
             style="fill:#b2b2b2;fill-opacity:1;stroke-width:0.808465" />
          <path
             d="m 36.641368,380.3538 a 14.995,14.995 0 0 1 22.79776,13.08671 c -6.67041,1.67475 -13.6781,2.95637 -20.79162,0.40058 l -1.6799,-4.11144 -0.99039,4.11449 c -2.16631,0.88545 -4.33822,1.63463 -6.51013,-0.009 a 15.31077,15.31077 0 0 1 7.17428,-13.48179 z"
             fill="#2f2e41"
             id="path3690-3" />
      
</svg>
