<svg
   width="100%"
   height="130.873mm"
   viewBox="0 0 399.99999 130.873"
   version="1.1"
   id="svg5"
   
   xmlns="http://www.w3.org/2000/svg"
   >

  <defs
     id="defs2">
    <rect
       x="-194.51605"
       y="307.98373"
       width="198.56847"
       height="370.12082"
       id="rect6120" />
  </defs>
      <rect
         style="fill:none;fill-opacity:1;fill-rule:evenodd;stroke:#3b0b47;stroke-width:30.333;stroke-linecap:square;stroke-miterlimit:4;stroke-dasharray:none;stroke-opacity:1;paint-order:markers stroke fill"
         id="rect11475-2-9-7"
         width="369.66696"
         height="100.53993"
         x="21.408886"
         y="69.491409"
         />
      <rect
         style="fill:none;fill-opacity:1;fill-rule:evenodd;stroke:#ffffff;stroke-width:20.222;stroke-linecap:square;stroke-miterlimit:4;stroke-dasharray:none;stroke-opacity:1;paint-order:markers stroke fill"
         id="rect11475-2-3"
         width="369.66696"
         height="100.53993"
         x="21.408886"
         y="69.491409"
         />
      <rect
         style="fill:#ffffff;fill-opacity:1;fill-rule:evenodd;stroke:none;stroke-width:10.111;stroke-linecap:square;stroke-miterlimit:4;stroke-dasharray:none;stroke-opacity:1;paint-order:markers stroke fill"
         id="rect11475-0"
         width="369.66696"
         height="100.53993"
         x="21.408886"
         y="69.491409"
         />
      <path
         style="fill:#3b0b47;fill-opacity:1;stroke-width:0.535041"
         d="m 70.853483,169.2907 c -2.14214,-0.95896 -4.83654,-3.86185 -5.85832,-6.31166 -2.35185,-5.63873 0.6818,-12.8648 6.38566,-15.21053 l 2.41138,-0.99166 0.001,-8.03379 10e-4,-8.03379 -2.75007,-0.97675 c -3.52349,-1.25135 -7.54534,-5.00167 -9.26712,-8.64121 -0.73218,-1.54768 -1.71834,-2.96255 -2.1915,-3.14413 -0.47314,-0.18157 -3.93784,-0.33009 -7.69934,-0.33009 h -6.83909 l -0.90652,2.37366 c -1.09975,2.87972 -4.31911,5.91323 -7.09286,6.68347 -4.93013,1.36901 -9.20883,0.14923 -12.57573,-3.58521 -3.30718,-3.66819 -3.96361,-8.18462 -1.84509,-12.69497 1.47762,-3.1459 2.46114,-4.10847 5.69817,-5.57678 5.96722,-2.70672 12.71791,-0.18685 15.80151,5.89843 l 1.32821,2.62105 h 6.84428 c 4.65171,0 7.12474,-0.21422 7.71986,-0.66879 0.48159,-0.36784 1.3835,-1.97523 2.00425,-3.572 l 1.12862,-2.90322 -4.89908,-4.91956 -4.89912,-4.919574 -2.1984,0.49395 c -3.16734,0.71167 -6.04209,0.0558 -8.24909,-1.88195 -6.42007,-5.63692 -3.30113,-15.21063 5.12441,-15.72953 2.40831,-0.14818 3.45394,0.0636 5.13453,1.04005 3.22532,1.87415 4.31015,4.16569 4.31015,9.10465 v 4.13369 l 4.48079,4.50522 4.48083,4.505194 2.74225,-1.27684 c 3.70685,-1.726014 9.41786,-1.782744 13.25583,-0.13159 l 2.68631,1.15562 6.98886,-6.988844 6.98884,-6.98886 -0.88156,-2.20323 c -1.12117,-2.80208 -1.13282,-7.64337 -0.0241,-9.98001 3.413477,-7.19341 13.609867,-8.90734 19.276897,-3.24032 4.59536,4.59536 4.6268,11.78464 0.071,16.2449 -3.75606,3.67731 -7.25687,4.60569 -12.44314,3.29976 -2.90262,-0.73088 -2.82116,-0.78354 -10.777557,6.96609 l -6.02206,5.865574 1.56622,2.84103 c 1.84993,3.35568 2.10616,7.58188 0.7388,12.18624 -1.12095,3.77469 -5.30423,8.05888 -9.23077,9.45345 l -2.76342,0.9815 v 8.11521 8.11523 l 1.55245,0.54118 c 2.11739,0.73812 5.64269,4.01322 6.68571,6.21118 0.48772,1.02781 0.85755,3.17815 0.85755,4.98616 0,4.22838 -1.61699,7.31922 -5.0401,9.63405 -2.3176,1.56725 -2.94835,1.73682 -6.39,1.71794 -2.10021,-0.012 -4.54088,-0.34428 -5.4237,-0.7395 z m 7.92973,-43.68658 c 2.46588,-0.68473 5.82141,-3.5979 6.99644,-6.07407 1.20698,-2.5435 1.08509,-6.45552 -0.28962,-9.29531 -1.2702,-2.62388 -4.76199,-5.21385 -7.79682,-5.78319 -4.84632,-0.90919 -10.76172,3.17008 -11.83167,8.15914 -1.14567,5.3421 1.13868,10.01853 5.99942,12.2818 3.07187,1.43035 3.99299,1.52505 6.92225,0.71163 z m 128.081627,27.7555 c -11.2776,-1.44468 -18.89817,-11.83201 -17.84467,-24.3234 0.522,-6.18908 2.05455,-9.48343 6.47209,-13.91211 3.41784,-3.42646 4.22841,-3.95433 7.68321,-5.0037 10.4488,-3.17372 20.4639,0.65773 24.81341,9.4928 1.44158,2.92827 1.75252,4.24605 1.94325,8.23557 l 0.22709,4.74946 h -17.7914 -17.7914 l 0.26592,2.35925 c 0.54421,4.82837 4.31518,10.23712 8.53252,12.23837 1.4045,0.6665 3.32178,0.91859 6.9861,0.91859 4.56686,0 5.36509,-0.15733 8.33834,-1.64303 1.80839,-0.90368 3.98954,-2.49411 4.84696,-3.53434 l 1.55897,-1.89128 2.00666,1.83895 2.00663,1.83895 -2.04179,2.26003 c -4.52223,5.00557 -12.14298,7.40954 -20.21189,6.37589 z m 17.81308,-26.93152 c 0,-3.52255 -4.37873,-9.25701 -8.45342,-11.07079 -2.39593,-1.06651 -8.92651,-1.44479 -11.42602,-0.66184 -3.96892,1.24321 -8.48257,6.16221 -9.86288,10.7486 l -0.70389,2.33879 h 15.22312 15.22309 z m -83.46648,-6.40332 V 87.119716 h 19.52903 19.529 v 2.67521 2.67519 h -16.5863 -16.58627 v 11.770944 11.7709 h 15.5162 15.51619 v 2.667 2.66701 l -15.38243,0.1419 -15.38245,0.14191 -0.14175,15.64996 -0.14176,15.64995 h -2.93464 -2.93466 z m 101.47706,20.46533 c -0.19352,-6.84184 -0.35231,-16.47258 -0.353,-21.40166 l -0.001,-8.96195 h 2.94271 2.94273 v 3.25299 3.25299 l 3.34402,-2.97998 c 1.85827,-1.65599 4.39666,-3.33898 5.71325,-3.78803 3.3221,-1.13303 8.87218,-1.02496 11.62822,0.22642 2.51542,1.14211 6.60162,4.97267 6.60162,6.18858 0,1.24408 0.34449,1.02385 3.62488,-2.31748 3.62486,-3.6922 6.58473,-4.90556 11.96657,-4.90556 4.95687,0 8.83847,1.51011 11.60992,4.5168 3.54685,3.84786 3.88556,5.74986 4.22188,23.70663 l 0.29312,15.64997 h -3.01719 -3.01718 l -0.012,-14.31235 c -0.0135,-15.26613 -0.34665,-18.09543 -2.45259,-20.85647 -2.03549,-2.66866 -4.18548,-3.56467 -8.50269,-3.54347 -4.3827,0.0214 -6.3954,0.88486 -8.7651,3.7597 -2.8785,3.49215 -3.20273,5.36332 -3.60684,20.81622 l -0.36965,14.13637 h -2.50509 -2.5051 l -0.34912,-15.11493 c -0.19211,-8.3132 -0.605,-16.02438 -0.91778,-17.13595 -2.19261,-7.79243 -11.81836,-8.93796 -18.24147,-2.17088 -4.00613,4.22068 -3.83355,3.00237 -4.70581,33.21791 -0.0311,1.07783 -0.30583,1.20385 -2.6245,1.20385 h -2.58975 z m 80.43704,-20.46533 V 87.119716 h 3.56155 3.56152 l -0.3495,8.4269 c -0.19231,4.634804 -0.35031,19.442074 -0.3513,32.905054 l -0.001,24.47816 h -3.21025 -3.21025 z m 39.05806,2.6752 V 92.470116 h -11.23589 -11.23587 v -2.67519 -2.67521 h 25.68201 25.68198 v 2.67521 2.67519 H 379.83997 368.6041 v 30.229864 30.22985 h -3.21025 -3.21025 z"
         id="path11277-6"
         />
      
</svg>
