<svg
   width="100%"
   height="100%"
   viewBox="0 0 181.19354 238.125"
   version="1.1"
   id="svg5"
   xmlns="http://www.w3.org/2000/svg"
   >
  
    <rect
       x="-194.51605"
       y="307.98373"
       width="198.56847"
       height="370.12082"
       id="rect6120" />
  
        <rect
           style="fill:#ffffff;fill-opacity:1;fill-rule:evenodd;stroke:#3b0b47;stroke-width:0;stroke-linecap:square;stroke-miterlimit:4;stroke-dasharray:none;stroke-opacity:1;paint-order:markers stroke fill"
           id="rect21745"
           width="114.802"
           height="150.873"
           x="6.2423863"
           y="54.324909"
           />
          <path
             style="fill:#3b0b47;fill-opacity:1;stroke-width:0.2021"
             d="m 31.252386,185.10877 c -4.259871,-0.54587 -7.138372,-4.46941 -6.740432,-9.18769 0.197179,-2.33775 0.776061,-3.58223 2.444696,-5.25509 1.291015,-1.29417 1.597175,-1.49353 2.902154,-1.88993 3.946816,-1.19882 7.729794,0.24848 9.372733,3.58571 0.54452,1.10599 0.661976,1.60389 0.734014,3.11071 l 0.08571,1.79401 h -6.720322 -6.720323 l 0.100544,0.89123 c 0.205577,1.82386 1.629977,3.86672 3.222972,4.62273 0.530517,0.25175 1.254746,0.3469 2.638851,0.3469 1.725032,0 2.02655,-0.0597 3.149625,-0.6206 0.683086,-0.34131 1.506973,-0.94208 1.830834,-1.33482 l 0.58886,-0.71459 0.757975,0.69475 0.757975,0.69457 -0.771246,0.85367 c -1.708179,1.89069 -4.586757,2.79887 -7.634604,2.40844 z m 6.728509,-10.17291 c 0,-1.33058 -1.653977,-3.49652 -3.193098,-4.18165 -0.905016,-0.40295 -3.371805,-0.54587 -4.315922,-0.25001 -1.499172,0.46959 -3.204115,2.32755 -3.725502,4.05992 l -0.265865,0.88352 h 5.750203 5.750184 z M 6.4532285,172.51721 v -12.42919 h 7.3766545 7.37668 v 1.01045 1.01045 H 14.941439 8.6763215 v 4.44631 4.4461 h 5.8609175 5.860917 v 1.00757 1.00737 l -5.810395,0.0539 -5.8103935,0.0539 -0.05355,5.91133 -0.05355,5.91152 h -1.108494 -1.108513 z m 38.3307745,7.73037 c -0.07319,-2.5843 -0.133097,-6.22221 -0.133289,-8.08401 l -4.63e-4,-3.38519 h 1.111557 1.111556 v 1.22868 1.22869 l 1.263124,-1.12564 c 0.701924,-0.62542 1.660738,-1.26124 2.158048,-1.43074 1.254861,-0.42799 3.351272,-0.38715 4.392312,0.0847 0.950146,0.43146 2.493639,1.87818 2.493639,2.33757 0,0.46997 0.130207,0.38677 1.369216,-0.87543 1.369216,-1.39453 2.487225,-1.85295 4.520112,-1.85295 1.872343,0 3.338541,0.57052 4.385398,1.70617 1.339746,1.45347 1.46768,2.17192 1.594728,8.95463 l 0.110753,5.91152 h -1.139677 -1.139678 l -0.0039,-5.40629 c -0.0058,-5.76648 -0.130977,-6.8351 -0.926415,-7.87811 -0.768858,-1.00795 -1.580976,-1.34637 -3.211704,-1.33828 -1.655479,0 -2.415727,0.33418 -3.310824,1.42014 -1.087287,1.31902 -1.20977,2.02572 -1.362416,7.8627 l -0.139646,5.33984 h -0.946235 -0.946255 l -0.131941,-5.70947 c -0.07261,-3.13999 -0.228517,-6.0527 -0.346667,-6.4726 -0.828201,-2.94353 -4.464138,-3.37614 -6.890323,-0.81996 -1.513215,1.59408 -1.448034,1.13392 -1.77752,12.54727 -0.01156,0.40718 -0.115568,0.45476 -0.991345,0.45476 h -0.978229 z m 30.38336,-7.73037 v -12.42919 h 1.345293 1.345294 l -0.131941,3.18314 c -0.07261,1.75066 -0.132326,7.34379 -0.132711,12.42919 l -6.55e-4,9.24605 H 76.380041 75.16744 Z m 14.753329,1.01045 v -11.41874 h -4.244115 -4.244116 v -1.01045 -1.01045 h 9.700833 9.700816 v 1.01045 1.01045 h -4.244118 -4.244097 v 11.41874 11.41874 h -1.212601 -1.212602 z"
             id="path11277-1-0"
            />
          <path
             style="fill:#3b0b47;fill-opacity:1;stroke-width:0.509624"
             d="m 53.338182,149.38367 c -2.040379,-0.91338 -4.606788,-3.67835 -5.580028,-6.01187 -2.24012,-5.37085 0.649417,-12.25353 6.082327,-14.48785 l 2.296826,-0.94458 0.0019,-7.65217 0.0019,-7.65217 -2.619435,-0.93035 c -3.356107,-1.19189 -7.186891,-4.76405 -8.826884,-8.2307 -0.697398,-1.47417 -1.636719,-2.82182 -2.087397,-2.99477 -0.450659,-0.17296 -3.750773,-0.31442 -7.333586,-0.31442 h -6.514207 l -0.86345,2.26091 c -1.047512,2.74292 -4.113927,5.63232 -6.755918,6.36597 -4.695933,1.30397 -8.771377,0.14214 -11.9783415,-3.4149 -3.150068,-3.49394 -3.775312,-7.795824 -1.75743,-12.091904 1.407431,-2.99646 2.344228,-3.9133 5.4274775,-5.31185 5.683751,-2.57814 12.11375,-0.17798 15.050883,5.61822 l 1.265108,2.49655 h 6.519138 c 4.430739,0 6.786293,-0.20406 7.353136,-0.63703 0.458711,-0.35037 1.317788,-1.8814 1.909036,-3.40232 l 1.075018,-2.7653 -4.666364,-4.68586 -4.666383,-4.68585 -2.093965,0.47048 c -3.016875,0.67786 -5.755076,0.0532 -7.857227,-1.79255 -6.115094,-5.36913 -3.144308,-14.48806 4.880975,-14.98231 2.293917,-0.14118 3.289867,0.0605 4.890624,0.99064 3.072097,1.78512 4.105395,3.96781 4.105395,8.67214 v 3.93733 l 4.267941,4.29119 4.267961,4.29118 2.611981,-1.21619 c 3.530769,-1.64402 8.970478,-1.69805 12.626119,-0.12539 l 2.558704,1.10073 6.656856,-6.65684 6.656837,-6.65685 -0.839681,-2.09857 c -1.06791,-2.66896 -1.079005,-7.28027 -0.02292,-9.50591 3.251324,-6.85168 12.963347,-8.4842 18.361163,-3.08639 4.377059,4.37706 4.407009,11.22482 0.06761,15.47319 -3.577632,3.50263 -6.912148,4.3869 -11.852041,3.14302 -2.764745,-0.69617 -2.68714,-0.74633 -10.265578,6.63516 l -5.735987,5.58691 1.491814,2.70607 c 1.762054,3.19628 2.006115,7.22172 0.703716,11.607354 -1.067718,3.59537 -5.052265,7.67605 -8.792272,9.00438 l -2.632148,0.93487 v 7.72975 7.7296 l 1.478698,0.51563 c 2.016805,0.70304 5.374644,3.82243 6.368109,5.91595 0.464546,0.97905 0.816818,3.02731 0.816818,4.74947 0,4.02737 -1.54018,6.97148 -4.800674,9.17633 -2.20751,1.49276 -2.808293,1.65436 -6.086449,1.63626 -2.00045,-0.0193 -4.325167,-0.32783 -5.166062,-0.70439 z m 7.553032,-41.61126 c 2.348735,-0.65221 5.544876,-3.42699 6.664079,-5.78553 1.149636,-2.422684 1.033548,-6.148854 -0.275862,-8.853734 -1.209866,-2.49925 -4.535771,-4.96619 -7.426445,-5.50848 -4.616092,-0.86599 -10.250476,3.0195 -11.269597,7.77156 -1.091254,5.088324 1.084571,9.542604 5.714416,11.698354 2.925941,1.3624 3.803298,1.4526 6.593409,0.67783 z"
             id="path11277-9-4"
             />
</svg>
